<svg width="495" height="83" viewBox="0 0 495 83" fill="none" xmlns="http://www.w3.org/2000/svg">
<path d="M152.27 61.4421L152.19 27.9221L135.71 55.5221H129.95L113.47 28.5621V61.4421H101.31V5.44213L112.03 5.44213L132.99 40.2421L153.63 5.44213H164.35L164.43 61.4421L152.27 61.4421ZM192.742 62.0821C188.208 62.0821 184.128 61.1488 180.502 59.2821C176.928 57.3621 174.128 54.7221 172.102 51.3621C170.075 48.0021 169.062 44.1888 169.062 39.9221C169.062 35.6555 170.075 31.8421 172.102 28.4821C174.128 25.1221 176.928 22.5088 180.502 20.6421C184.128 18.7221 188.208 17.7621 192.742 17.7621C197.275 17.7621 201.328 18.7221 204.902 20.6421C208.475 22.5088 211.275 25.1221 213.302 28.4821C215.328 31.8421 216.342 35.6555 216.342 39.9221C216.342 44.1888 215.328 48.0021 213.302 51.3621C211.275 54.7221 208.475 57.3621 204.902 59.2821C201.328 61.1488 197.275 62.0821 192.742 62.0821ZM192.742 51.8421C195.942 51.8421 198.555 50.7755 200.582 48.6421C202.662 46.4555 203.702 43.5488 203.702 39.9221C203.702 36.2955 202.662 33.4155 200.582 31.2821C198.555 29.0955 195.942 28.0021 192.742 28.0021C189.542 28.0021 186.902 29.0955 184.822 31.2821C182.742 33.4155 181.702 36.2955 181.702 39.9221C181.702 43.5488 182.742 46.4555 184.822 48.6421C186.902 50.7755 189.542 51.8421 192.742 51.8421ZM220.125 18.4021H232.525V44.0021L253.485 18.4021L264.925 18.4021V61.4421H252.525V35.8421L231.645 61.4421H220.125V18.4021ZM241.725 13.7621C232.339 13.7621 227.619 9.6288 227.565 1.36213L235.725 1.36213C235.779 3.2288 236.285 4.69547 237.245 5.76214C238.259 6.77547 239.725 7.28214 241.645 7.28214C243.565 7.28214 245.032 6.77547 246.045 5.76214C247.112 4.69547 247.645 3.2288 247.645 1.36213L255.965 1.36213C255.912 9.6288 251.165 13.7621 241.725 13.7621Z" fill="#FF5F5F"/>
<path d="M315.882 16.0021L297.962 16.0021V61.4421L285.162 61.4421V16.0021L267.322 16.0021V5.44213L315.882 5.44213V16.0021ZM332.445 62.0821C327.911 62.0821 323.831 61.1488 320.205 59.2821C316.631 57.3621 313.831 54.7221 311.805 51.3621C309.778 48.0021 308.765 44.1888 308.765 39.9221C308.765 35.6555 309.778 31.8421 311.805 28.4821C313.831 25.1221 316.631 22.5088 320.205 20.6421C323.831 18.7221 327.911 17.7621 332.445 17.7621C336.978 17.7621 341.031 18.7221 344.605 20.6421C348.178 22.5088 350.978 25.1221 353.005 28.4821C355.031 31.8421 356.045 35.6555 356.045 39.9221C356.045 44.1888 355.031 48.0021 353.005 51.3621C350.978 54.7221 348.178 57.3621 344.605 59.2821C341.031 61.1488 336.978 62.0821 332.445 62.0821ZM332.445 51.8421C335.645 51.8421 338.258 50.7755 340.285 48.6421C342.365 46.4555 343.405 43.5488 343.405 39.9221C343.405 36.2955 342.365 33.4155 340.285 31.2821C338.258 29.0955 335.645 28.0021 332.445 28.0021C329.245 28.0021 326.605 29.0955 324.525 31.2821C322.445 33.4155 321.405 36.2955 321.405 39.9221C321.405 43.5488 322.445 46.4555 324.525 48.6421C326.605 50.7755 329.245 51.8421 332.445 51.8421ZM358.228 18.4021H370.628V35.2021H389.348V18.4021L401.828 18.4021V61.4421H389.348V45.3621H370.628V61.4421H358.228V18.4021ZM450.495 18.4021L431.055 64.0821C429.082 69.0421 426.629 72.5355 423.695 74.5621C420.815 76.5888 417.322 77.6021 413.215 77.6021C410.975 77.6021 408.762 77.2555 406.575 76.5621C404.389 75.8688 402.602 74.9088 401.215 73.6821L405.775 64.8021C406.735 65.6555 407.829 66.3221 409.055 66.8021C410.335 67.2821 411.589 67.5221 412.815 67.5221C414.522 67.5221 415.909 67.0955 416.975 66.2421C418.042 65.4421 419.002 64.0821 419.855 62.1621L420.015 61.7621L401.375 18.4021H414.255L426.335 47.6021L438.495 18.4021H450.495ZM469.424 62.0821C464.837 62.0821 460.704 61.1488 457.024 59.2821C453.397 57.3621 450.544 54.7221 448.464 51.3621C446.437 48.0021 445.424 44.1888 445.424 39.9221C445.424 35.6555 446.437 31.8421 448.464 28.4821C450.544 25.1221 453.397 22.5088 457.024 20.6421C460.704 18.7221 464.837 17.7621 469.424 17.7621C473.957 17.7621 477.904 18.7221 481.264 20.6421C484.677 22.5088 487.157 25.2021 488.704 28.7221L479.024 33.9221C476.784 29.9755 473.557 28.0021 469.344 28.0021C466.091 28.0021 463.397 29.0688 461.264 31.2021C459.131 33.3355 458.064 36.2421 458.064 39.9221C458.064 43.6021 459.131 46.5088 461.264 48.6421C463.397 50.7755 466.091 51.8421 469.344 51.8421C473.611 51.8421 476.837 49.8688 479.024 45.9221L488.704 51.2021C487.157 54.6155 484.677 57.2821 481.264 59.2021C477.904 61.1221 473.957 62.0821 469.424 62.0821Z" fill="#00D4E6"/>
<ellipse rx="31.5899" ry="30.5532" transform="matrix(0.969022 0.246973 0.528469 -0.848953 46.7578 36.9526)" fill="#00D4E6"/>
<ellipse rx="22.4647" ry="23.5347" transform="matrix(0.271149 0.962538 0.999945 0.0104586 54.9616 21.8692)" fill="#FFC300"/>
<ellipse rx="27.646" ry="26.7013" transform="matrix(0.876525 -0.481356 -0.260079 -0.965587 59.892 43.9099)" fill="#8759F2"/>
<path fill-rule="evenodd" clip-rule="evenodd" d="M75.5563 18.4944C69.3507 13.9956 60.7388 13.5222 52.3528 18.1275C46.1684 21.5238 41.189 27.0878 38 33.4961C43.864 39.4358 52.2147 43.4061 60.4582 43.4924C73.4553 43.6283 81.2644 34.0575 77.9003 22.1154C77.8028 21.7693 77.697 21.425 77.5832 21.0827C76.987 20.1793 76.3106 19.3145 75.5563 18.4944Z" fill="#FF5F5F"/>
</svg>
